<svg width="28" height="37" viewBox="0 0 28 37" fill="none" xmlns="http://www.w3.org/2000/svg">
    <line y1="36" x2="28" y2="36" stroke="currentColor" stroke-width="2"/>
    <path fill-rule="evenodd" clip-rule="evenodd" d="M14 0C6.265 0 0 6.18556 0 13.8225C0 19.9389 4.0075 25.1051 9.5725 26.9366C10.2725 27.0575 10.535 26.6428 10.535 26.28C10.535 25.9517 10.5175 24.8632 10.5175 23.7056C7 24.3448 6.09 22.8589 5.81 22.0814C5.6525 21.684 4.97 20.4573 4.375 20.129C3.885 19.8698 3.185 19.2305 4.3575 19.2132C5.46 19.196 6.2475 20.2154 6.51 20.63C7.77 22.7207 9.7825 22.1332 10.5875 21.7704C10.71 20.8719 11.0775 20.2672 11.48 19.9216C8.365 19.5761 5.11 18.3839 5.11 13.0968C5.11 11.5936 5.6525 10.3496 6.545 9.38201C6.405 9.03645 5.915 7.61964 6.685 5.71905C6.685 5.71905 7.8575 5.35621 10.535 7.13586C11.655 6.82485 12.845 6.66935 14.035 6.66935C15.225 6.66935 16.415 6.82485 17.535 7.13586C20.2125 5.33893 21.385 5.71905 21.385 5.71905C22.155 7.61964 21.665 9.03645 21.525 9.38201C22.4175 10.3496 22.96 11.5763 22.96 13.0968C22.96 18.4012 19.6875 19.5761 16.5725 19.9216C17.08 20.3536 17.5175 21.1829 17.5175 22.4788C17.5175 24.3276 17.5 25.8135 17.5 26.28C17.5 26.6428 17.7625 27.0748 18.4625 26.9366C23.9925 25.1051 28 19.9216 28 13.8225C28 6.18556 21.735 0 14 0Z" fill="currentColor"/>
</svg>
