<svg width="28" height="39" viewBox="0 0 28 39" fill="none" xmlns="http://www.w3.org/2000/svg">
    <line y1="38" x2="28" y2="38" stroke="currentColor" stroke-width="2"/>
    <path d="M0.982664 6.40883C0.327089 5.79998 0 5.04669 0 4.15041C0 3.25413 0.327089 2.46688 0.982664 1.85803C1.63824 1.24918 2.48212 0.944763 3.51716 0.944763C4.55221 0.944763 5.36212 1.24918 6.01628 1.85803C6.67186 2.46688 6.99894 3.23147 6.99894 4.15041C6.99894 5.06935 6.67186 5.79998 6.01628 6.40883C5.36071 7.01768 4.52814 7.3221 3.51716 7.3221C2.50619 7.3221 1.63824 7.01768 0.982664 6.40883ZM6.44673 9.90052V28.5582H0.552216V9.90052H6.44673Z" fill="currentColor"/>
    <path d="M26.0729 11.7426C27.3571 13.1373 28 15.0531 28 17.4913V28.2297H22.4V18.2488C22.4 17.0198 22.0814 16.064 21.4442 15.383C20.807 14.7019 19.9504 14.3621 18.8743 14.3621C17.7982 14.3621 16.9416 14.7033 16.3044 15.383C15.6672 16.064 15.3486 17.0198 15.3486 18.2488V28.2297H9.71606V9.84951H15.3486V12.2878C15.9193 11.475 16.6881 10.8336 17.6552 10.3607C18.6209 9.88917 19.7083 9.65271 20.9161 9.65271C23.0683 9.65271 24.7872 10.3507 26.0715 11.744L26.0729 11.7426Z" fill="currentColor"/>
</svg>
