<svg width="28" height="34" viewBox="0 0 28 34" fill="none" xmlns="http://www.w3.org/2000/svg">
    <path fill-rule="evenodd" clip-rule="evenodd" d="M1.92485 9.90135C9.44103 6.65552 14.453 4.51567 16.9607 3.4818C24.1209 0.529891 25.6087 0.0171128 26.5784 0.000180536C26.7917 -0.00354352 27.2686 0.0488489 27.5775 0.297298C27.8383 0.507084 27.9101 0.790474 27.9444 0.989374C27.9788 1.18827 28.0215 1.64137 27.9876 1.99541C27.5995 6.03635 25.9206 15.8426 25.0665 20.3686C24.7051 22.2836 23.9934 22.9258 23.3045 22.9886C21.8072 23.1252 20.6703 22.0078 19.2201 21.0656C16.9509 19.5912 15.669 18.6734 13.4663 17.2347C10.9207 15.572 12.5709 14.6581 14.0216 13.1646C14.4013 12.7738 20.9982 6.82622 21.1259 6.28669C21.1419 6.21921 21.1567 5.96768 21.0059 5.83487C20.8552 5.70205 20.6327 5.74747 20.4721 5.78359C20.2445 5.83479 16.6194 8.20974 9.59681 12.9084C8.56784 13.6088 7.63583 13.95 6.80078 13.9321C5.8802 13.9124 4.10939 13.4162 2.79297 12.9921C1.17832 12.4718 -0.104962 12.1968 0.00678326 11.3133C0.0649872 10.8531 0.704344 10.3824 1.92485 9.90135Z" fill="currentColor"/>
    <line y1="33" x2="28" y2="33" stroke="currentColor" stroke-width="2"/>
</svg>
